<svg width="24" height="24" viewBox="0 0 24 24" fill="none" xmlns="http://www.w3.org/2000/svg">
<path fill-rule="evenodd" clip-rule="evenodd" d="M11.414 11H19C19.552 11 20 10.552 20 10C20 8.512 20 6.488 20 5C20 4.735 19.895 4.48 19.707 4.293C19.52 4.105 19.265 4 19 4C15.537 4 8.463 4 5 4C4.735 4 4.48 4.105 4.293 4.293C4.105 4.48 4 4.735 4 5C4 8.463 4 15.537 4 19C4 19.265 4.105 19.52 4.293 19.707C4.48 19.895 4.735 20 5 20C8.463 20 15.537 20 19 20C19.265 20 19.52 19.895 19.707 19.707C19.895 19.52 20 19.265 20 19C20 17.608 20 16 20 16C20 15.448 20.448 15 21 15C21.552 15 22 15.448 22 16C22 16 22 17.608 22 19C22 19.796 21.684 20.559 21.121 21.121C20.559 21.684 19.796 22 19 22C15.537 22 8.463 22 5 22C4.204 22 3.441 21.684 2.879 21.121C2.316 20.559 2 19.796 2 19C2 15.537 2 8.463 2 5C2 4.204 2.316 3.441 2.879 2.879C3.441 2.316 4.204 2 5 2C8.463 2 15.537 2 19 2C19.796 2 20.559 2.316 21.121 2.879C21.684 3.441 22 4.204 22 5C22 6.488 22 8.512 22 10C22 11.657 20.657 13 19 13H11.414L13.707 15.293C14.097 15.683 14.097 16.317 13.707 16.707C13.317 17.097 12.683 17.097 12.293 16.707L8.293 12.707C7.902 12.317 7.902 11.683 8.293 11.293L12.293 7.293C12.683 6.903 13.317 6.903 13.707 7.293C14.097 7.683 14.097 8.317 13.707 8.707L11.414 11Z" fill="black"></path>
</svg>